# xmcd
#
# Track frame offsets:
# 150
# 12557
# 24072
# 37381
# 51644
# 71543
# 91453
# 100210
#
# Disc length: 1570 seconds
#
# Revision: 1
# Processed by: cddbd v1.5.2PL0 Copyright (c) Steve Scherf et al.
# Submitted via: Easy CD Ripper v2.27
#
DISCID=6b062008
DTITLE=Luxury Kings - This One's For Chico
DYEAR=2002
DGENRE=Blues
TTITLE0=Cryin' Why - Luxury Kings
TTITLE1=So Sad - Luxury Kings
TTITLE2=You've Been Warned - Luxury Kings
TTITLE3=Hypnosis - Luxury Kings
TTITLE4=Cools Me To The Core - Luxury Kings
TTITLE5=Damnation - Luxury Kings
TTITLE6=Luxury King - Luxury Kings
TTITLE7=I Wanna Know You - Luxury Kings
EXTD=
EXTT0=
EXTT1=
EXTT2=
EXTT3=
EXTT4=
EXTT5=
EXTT6=
EXTT7=
PLAYORDER=
